<?xml version="1.0" encoding="UTF-8"?>
<!DOCTYPE svg PUBLIC "-//W3C//DTD SVG 1.1//EN" "http://www.w3.org/Graphics/SVG/1.1/DTD/svg11.dtd">
<svg xmlns="http://www.w3.org/2000/svg" xmlns:xlink="http://www.w3.org/1999/xlink" version="1.1" viewBox="0 0 8 8">
  <g stroke-opacity="1" stroke-width=".125" fill-opacity="1" fill="white" fill-rule="evenodd" stroke-linecap="square" stroke-linejoin="square" stroke-miterlimit="10" pointer-events="stroke">
    <path d="M 4 1.5 L 5.5 3 L 4.5 4 L 5 4.5 L 6 3.5 L 6.5 4 L 5.5 5 L 6.5 6 L 6 6.5 L 5 5.5 L 3 7.5 L 2.5 7 L 4.5 5 L 4 4.5 L 3 5.5 L 1.5 4 L 3 2.5 L 4 3.5 L 4.5 3 L 3.5 2 Z M 2.5 4 L 3 3.5 L 3.5 4 L 3 4.5 Z" />
    <path d="M 2.5 1 L 3 .5 L 5 2.5 L 6 1.5 L 6.5 2 L 5.5 3 L 6 3.5 L 5.5 4 L 5 3.5 L 2 6.5 1.5 6 L 2.5 5 L 1.5 4 L 3 2.5 L 4 3.5 L 4.5 3 Z M 2.5 4 L 3 3.5 L 3.5 4 L 3 4.5 Z" />
  </g>
</svg>