<?xml version="1.0" encoding="UTF-8"?>
<!DOCTYPE svg PUBLIC "-//W3C//DTD SVG 1.1//EN" "http://www.w3.org/Graphics/SVG/1.1/DTD/svg11.dtd">
<svg xmlns="http://www.w3.org/2000/svg" xmlns:xlink="http://www.w3.org/1999/xlink" version="1.1" viewBox="-1 -1 18 18">
  <defs>
    <linearGradient id="gradient" x1=".2" y1=".2" x2=".8" y2=".8">
      <stop offset="0" stop-color="#F09" />
      <stop offset="1" stop-color="#3CC" />
    </linearGradient>

    <mask id="erase">
      <rect fill="white" width="100%" height="100%" />
      <!--<path stroke="black" stroke-width=".125" d="M 10 8 L 13 8 " />-->
    </mask>

    <path id="main" stroke="none" fill-rule="evenodd" mask="url(#erase)" d="M 4 13 L 3 12 L 5 10 L 3 8 L 6 5 L 8 7 L 9 6 L 5 2 L 6 1 L 10 5 L 12 3 L 13 4 L 11 6
    L 13 8 L 11 10 L 13 12 L 12 13 L 10 11 L 6 15 L 5 14 L 9 10 L 8 9 Z
    M 5 8 L 6 7 L 7 8 L 6 9 Z
    M 9 8 L 10 7 L 11 8 L 10 9 Z" />
  </defs>

  <use href="#main" fill="white" />
  <use href="#main" fill="url(#gradient)" />

  <!--
  <rect x="-1" y="-1" width="18" height="18" fill="white" />
  <path fill="none" stroke="url(#gradient)" stroke-width=".5" d="M 0 0 L 0 16 L 16 16 L 16 0 Z" />
  <circle fill="none" stroke="url(#gradient)" stroke-width="1" cx="8" cy="8" r="8" />
  -->
</svg>