<?xml version="1.0" encoding="UTF-8"?>
<!DOCTYPE svg PUBLIC "-//W3C//DTD SVG 1.1//EN" "http://www.w3.org/Graphics/SVG/1.1/DTD/svg11.dtd">
<svg xmlns="http://www.w3.org/2000/svg" xmlns:xlink="http://www.w3.org/1999/xlink" version="1.1" viewBox="0 0 16 16">
  <g stroke-opacity="1" stroke-width=".125" fill-opacity="1" fill="white" fill-rule="evenodd" stroke-linecap="square" stroke-linejoin="square" stroke-miterlimit="10" pointer-events="stroke">
    <path d="M 8 3 L 11 6 L 9 8 L 10 9 L 6 7 L 13 8 L 11 10 L 13 12 L 12 13 L 10 11 L 6 15 L 5 14 L 9 10 L 8 9 L 6 11 L 3 8 L 6 5 L 8 7 L 7 6 L 7 4 Z M 5 8 L 6 7 L 7 8 L 6 9 Z" />
    <path d="M 2.5 1 L 3 .5 L 5 2.5 L 6 1.5 L 6.5 2 L 5.5 3 L 6 3.5 L 5.5 4 L 5 3.5 L 2 6.5 1.5 6 L 2.5 5 L 1.5 4 L 3 2.5 L 4 3.5 L 4.5 3 Z M 2.5 4 L 3 3.5 L 3.5 4 L 3 4.5 Z" />
  </g>
</svg>