<?xml version="1.0" encoding="UTF-8"?>
<!DOCTYPE svg PUBLIC "-//W3C//DTD SVG 1.1//EN" "http://www.w3.org/Graphics/SVG/1.1/DTD/svg11.dtd">
<svg xmlns="http://www.w3.org/2000/svg" xmlns:xlink="http://www.w3.org/1999/xlink" version="1.1" viewBox="-1 -1 9 9">
  <defs />
  <g stroke="white" stroke-width="0.25" stroke-miterlimit="10" pointer-events="stroke" stroke-linecap="butt" transform="translate(0 .5)">
    <path d="M 4 2 L 1 2 L 0 0 L 8 0 L 7 2 L 4 2" />
    <path d="M 4 4 L 4 0" />
    <path d="M 7 3 L 1 3" />
    <path d="M 8 4 L 0 4" />
    <path d="M 1 4 L 0 6" />
    <path d="M 8 7 L 0 7" />
    <path d="M 1 6 L 7 6" />
    <path d="M 7 4 L 8 6" />
    <path d="M 3 4 L 2 6" />
    <path d="M 5 4 L 6 6" />
    <path d="M 4 7 L 4 5" />
    <path d="M 2 0 L 3 2" />
    <path d="M 6 0 L 5 2" />
    <path d="M 8 4 L 2 4" />
  </g>
</svg>