<?xml version="1.0" encoding="UTF-8"?>
<!DOCTYPE svg PUBLIC "-//W3C//DTD SVG 1.1//EN" "http://www.w3.org/Graphics/SVG/1.1/DTD/svg11.dtd">
<svg xmlns="http://www.w3.org/2000/svg" xmlns:xlink="http://www.w3.org/1999/xlink" version="1.1" viewBox="-8 -8 40 32">
  <defs />
  <g fill="none" stroke="black" stroke-width="0.25" stroke-miterlimit="10" pointer-events="stroke">
    <path d="M 4 8 L 2 12 L 3 14" />
    <path d="M 0 10 L 8 10" />
    <path d="M 5 10 L 2 16 L 6 16 L 4 12" />
    <path d="M 3 4 L 3 7 L 1 6 L 0 8 L 3 2 L 0 2" />
    <path d="M 4 8 L 8 0 L 4 0 L 4 6 L 8 8" />
    <path d="M 5 4 L 6 4" />
    <path d="M 5 2 L 7 2" />

    <g transform="translate(16 0)">
      <path d="M 1 6 L 3 2 L 2 0 L 6 0 L 5 2 L 7 2 L 5 6" />
      <path d="M 3 6 L 5 2 L 3 2 L 5 6" />
      <path d="M 5 6 L 4 8" />
      <path d="M 3 6 L 2 8" />
      <path d="M 6 8 L 7 6 L 1 6 L 0 8 L 8 8" />
      <path d="M 0 12 L 2 8 L 5 8 L 2 14 L 0 14" />
      <path d="M 2 10 L 8 13" />
      <path d="M 4 13 L 6 14" />
      <path d="M 4 15 L 6 16" />
    </g>
  </g>
</svg>