<?xml version="1.0" encoding="UTF-8"?>
<!DOCTYPE svg PUBLIC "-//W3C//DTD SVG 1.1//EN" "http://www.w3.org/Graphics/SVG/1.1/DTD/svg11.dtd">
<svg xmlns="http://www.w3.org/2000/svg" xmlns:xlink="http://www.w3.org/1999/xlink" version="1.1" width="86px" height="76px" viewBox="-0.5 -0.5 86 76">
  <defs />
  <g fill="none" stroke="#000000" stroke-width="5" stroke-miterlimit="10" pointer-events="stroke">
    <path d="M 42 22 L 12 22 L 2 2 L 82 2 L 72 22 L 42 22" />
    <path d="M 42 42 L 42 2" />
    <path d="M 72 32 L 12 32" />
    <path d="M 82 42 L 2 42" />
    <path d="M 12 42 L 2 61.76" />
    <path d="M 82 72 L 2 72" />
    <path d="M 12 62 L 72 62" />
    <path d="M 72 42 L 82 62" />
    <path d="M 32 42 L 22 62" />
    <path d="M 52 42 L 62 62" />
    <path d="M 42 72 L 42 52" />
    <path d="M 22 2 L 32 22" />
    <path d="M 62 2 L 52 22" />
    <path d="M 82 42 L 22 42" />
  </g>
</svg>